# Blender v2.78 (sub 0) OBJ File: ''
# www.blender.org
mtllib wall_test.mtl
o Cylinder.001
v -7.295112 -1.689668 -3.204802
v -7.295112 2.235251 -3.204802
v -6.681578 -1.689668 -3.144374
v -6.681578 2.235251 -3.144374
v -6.091622 -1.689668 -2.965412
v -6.091622 2.235251 -2.965412
v -5.547915 -1.689668 -2.674795
v -5.547915 2.235251 -2.674795
v -5.071353 -1.689668 -2.283690
v -5.071353 2.235251 -2.283690
v -4.680247 -1.689668 -1.807128
v -4.680247 2.235251 -1.807128
v -4.389631 -1.689668 -1.263421
v -4.389631 2.235251 -1.263421
v -4.210670 -1.689668 -0.673465
v -4.210670 2.235251 -0.673465
v -4.150242 -1.689668 -0.059932
v -4.150242 2.235251 -0.059932
v -4.210670 -1.689668 0.553602
v -4.210670 2.235251 0.553602
v -4.389630 -1.689668 1.143558
v -4.389630 2.235251 1.143558
v -4.680247 -1.689668 1.687265
v -4.680247 2.235251 1.687265
v -5.071353 -1.689668 2.163827
v -5.071353 2.235251 2.163827
v -5.547915 -1.689668 2.554933
v -5.547915 2.235251 2.554933
v -6.091622 -1.689668 2.845550
v -6.091622 2.235251 2.845550
v -6.681579 -1.689668 3.024511
v -6.681579 2.235251 3.024511
v -7.295113 -1.689668 3.084939
v -7.295113 2.235251 3.084939
v -7.908647 -1.689668 3.024510
v -7.908647 2.235251 3.024510
v -8.498603 -1.689668 2.845549
v -8.498603 2.235251 2.845549
v -9.042310 -1.689668 2.554931
v -9.042310 2.235251 2.554931
v -9.518872 -1.689668 2.163826
v -9.518872 2.235251 2.163826
v -9.909977 -1.689668 1.687263
v -9.909977 2.235251 1.687263
v -10.200594 -1.689668 1.143556
v -10.200594 2.235251 1.143556
v -10.379555 -1.689668 0.553599
v -10.379555 2.235251 0.553599
v -10.439981 -1.689668 -0.059935
v -10.439981 2.235251 -0.059935
v -10.379553 -1.689668 -0.673468
v -10.379553 2.235251 -0.673468
v -10.200591 -1.689668 -1.263424
v -10.200591 2.235251 -1.263424
v -9.909973 -1.689668 -1.807131
v -9.909973 2.235251 -1.807131
v -9.518867 -1.689668 -2.283693
v -9.518867 2.235251 -2.283693
v -9.042304 -1.689668 -2.674798
v -9.042304 2.235251 -2.674798
v -8.498597 -1.689668 -2.965414
v -8.498597 2.235251 -2.965414
v -7.908641 -1.689668 -3.144375
v -7.908641 2.235251 -3.144375
vt 0.2947 0.5000
vt 0.2947 0.0000
vt 0.3333 0.0000
vt 0.3333 0.5000
vt 0.3662 0.0000
vt 0.3662 0.5000
vt 1.0000 0.0000
vt 1.0000 0.5000
vt 0.9614 0.5000
vt 0.9614 0.0000
vt 0.9185 0.5000
vt 0.9185 0.0000
vt 0.8730 0.5000
vt 0.8730 0.0000
vt 0.8265 0.5000
vt 0.8265 0.0000
vt 0.7810 0.5000
vt 0.7810 0.0000
vt 0.7381 0.5000
vt 0.7381 0.0000
vt 0.6995 0.5000
vt 0.6995 0.0000
vt 0.3662 0.5000
vt 0.3662 0.0000
vt 0.3990 0.0000
vt 0.3990 0.5000
vt 0.4376 0.0000
vt 0.4376 0.5000
vt 0.4805 0.0000
vt 0.4805 0.5000
vt 0.5260 0.0000
vt 0.5260 0.5000
vt 0.5725 0.0000
vt 0.5725 0.5000
vt 0.6180 0.0000
vt 0.6180 0.5000
vt 0.6609 0.0000
vt 0.6609 0.5000
vt 0.6995 0.0000
vt 0.6995 0.5000
vt 0.3333 0.5000
vt 0.3333 1.0000
vt 0.3005 1.0000
vt 0.3005 0.5000
vt 0.2619 1.0000
vt 0.2619 0.5000
vt 0.2190 1.0000
vt 0.2190 0.5000
vt 0.1735 1.0000
vt 0.1735 0.5000
vt 0.1270 1.0000
vt 0.1270 0.5000
vt 0.0815 1.0000
vt 0.0815 0.5000
vt 0.0386 1.0000
vt 0.0386 0.5000
vt 0.0000 1.0000
vt 0.0000 0.5000
vt 0.0000 0.0000
vt 0.0328 0.0000
vt 0.0328 0.5000
vt 0.0714 0.0000
vt 0.0714 0.5000
vt 0.1143 0.0000
vt 0.1143 0.5000
vt 0.1599 0.0000
vt 0.1599 0.5000
vt 0.2063 0.0000
vt 0.2063 0.5000
vt 0.2518 0.0000
vt 0.2518 0.5000
vn 0.0980 0.0000 -0.9952
vn 0.2903 0.0000 -0.9569
vn 0.4714 0.0000 -0.8819
vn 0.6344 0.0000 -0.7730
vn 0.7730 0.0000 -0.6344
vn 0.8819 0.0000 -0.4714
vn 0.9569 0.0000 -0.2903
vn 0.9952 0.0000 -0.0980
vn 0.9952 0.0000 0.0980
vn 0.9569 0.0000 0.2903
vn 0.8819 0.0000 0.4714
vn 0.7730 0.0000 0.6344
vn 0.6344 0.0000 0.7730
vn 0.4714 0.0000 0.8819
vn 0.2903 0.0000 0.9569
vn 0.0980 0.0000 0.9952
vn -0.0980 0.0000 0.9952
vn -0.2903 0.0000 0.9569
vn -0.4714 0.0000 0.8819
vn -0.6344 0.0000 0.7730
vn -0.7730 0.0000 0.6344
vn -0.8819 0.0000 0.4714
vn -0.9569 0.0000 0.2903
vn -0.9952 0.0000 0.0980
vn -0.9952 0.0000 -0.0980
vn -0.9569 0.0000 -0.2903
vn -0.8819 0.0000 -0.4714
vn -0.7730 0.0000 -0.6344
vn -0.6344 0.0000 -0.7730
vn -0.4714 0.0000 -0.8819
vn -0.2903 0.0000 -0.9569
vn -0.0980 0.0000 -0.9952
usemtl None
s off
f 1/1/1 2/2/1 4/3/1 3/4/1
f 3/4/2 4/3/2 6/5/2 5/6/2
f 5/7/3 6/8/3 8/9/3 7/10/3
f 7/10/4 8/9/4 10/11/4 9/12/4
f 9/12/5 10/11/5 12/13/5 11/14/5
f 11/14/6 12/13/6 14/15/6 13/16/6
f 13/16/7 14/15/7 16/17/7 15/18/7
f 15/18/8 16/17/8 18/19/8 17/20/8
f 17/20/9 18/19/9 20/21/9 19/22/9
f 19/23/10 20/24/10 22/25/10 21/26/10
f 21/26/11 22/25/11 24/27/11 23/28/11
f 23/28/12 24/27/12 26/29/12 25/30/12
f 25/30/13 26/29/13 28/31/13 27/32/13
f 27/32/14 28/31/14 30/33/14 29/34/14
f 29/34/15 30/33/15 32/35/15 31/36/15
f 31/36/16 32/35/16 34/37/16 33/38/16
f 33/38/17 34/37/17 36/39/17 35/40/17
f 35/41/18 36/42/18 38/43/18 37/44/18
f 37/44/19 38/43/19 40/45/19 39/46/19
f 39/46/20 40/45/20 42/47/20 41/48/20
f 41/48/21 42/47/21 44/49/21 43/50/21
f 43/50/22 44/49/22 46/51/22 45/52/22
f 45/52/23 46/51/23 48/53/23 47/54/23
f 47/54/24 48/53/24 50/55/24 49/56/24
f 49/56/25 50/55/25 52/57/25 51/58/25
f 51/58/26 52/59/26 54/60/26 53/61/26
f 53/61/27 54/60/27 56/62/27 55/63/27
f 55/63/28 56/62/28 58/64/28 57/65/28
f 57/65/29 58/64/29 60/66/29 59/67/29
f 59/67/30 60/66/30 62/68/30 61/69/30
f 61/69/31 62/68/31 64/70/31 63/71/31
f 63/71/32 64/70/32 2/2/32 1/1/32
