# Blender v2.78 (sub 0) OBJ File: ''
# www.blender.org
mtllib wall_triangulated.mtl
o Cylinder
v -7.538136 -1.774866 -3.163261
v -7.538136 1.774866 -3.163261
v -7.228082 -1.774866 -3.148029
v -7.228082 1.774866 -3.148029
v -6.921014 -1.774866 -3.102479
v -6.921014 1.774866 -3.102479
v -6.619889 -1.774866 -3.027052
v -6.619889 1.774866 -3.027052
v -6.327608 -1.774866 -2.922472
v -6.327608 1.774866 -2.922472
v -6.046985 -1.774866 -2.789747
v -6.046985 1.774866 -2.789747
v -5.780722 -1.774866 -2.630155
v -5.780722 1.774866 -2.630155
v -5.531384 -1.774866 -2.445234
v -5.531384 1.774866 -2.445234
v -5.301373 -1.774866 -2.236763
v -5.301373 1.774866 -2.236763
v -5.092902 -1.774866 -2.006752
v -5.092902 1.774866 -2.006752
v -4.907980 -1.774866 -1.757414
v -4.907980 1.774866 -1.757414
v -4.748389 -1.774866 -1.491151
v -4.748389 1.774866 -1.491151
v -4.615664 -1.774866 -1.210527
v -4.615664 1.774866 -1.210527
v -4.511084 -1.774866 -0.918246
v -4.511084 1.774866 -0.918246
v -4.435656 -1.774866 -0.617121
v -4.435656 1.774866 -0.617121
v -4.390107 -1.774866 -0.310053
v -4.390107 1.774866 -0.310053
v -4.374875 -1.774866 0.000001
v -4.374875 1.774866 0.000001
v -4.390107 -1.774866 0.310054
v -4.390107 1.774866 0.310054
v -4.435656 -1.774866 0.617122
v -4.435656 1.774866 0.617122
v -4.511084 -1.774866 0.918247
v -4.511084 1.774866 0.918247
v -4.615664 -1.774866 1.210528
v -4.615664 1.774866 1.210528
v -4.748389 -1.774866 1.491152
v -4.748389 1.774866 1.491152
v -4.907981 -1.774866 1.757414
v -4.907981 1.774866 1.757414
v -5.092903 -1.774866 2.006752
v -5.092903 1.774866 2.006752
v -5.301373 -1.774866 2.236764
v -5.301373 1.774866 2.236764
v -5.531385 -1.774866 2.445235
v -5.531385 1.774866 2.445235
v -5.780724 -1.774866 2.630156
v -5.780724 1.774866 2.630156
v -6.046987 -1.774866 2.789748
v -6.046987 1.774866 2.789748
v -6.327610 -1.774866 2.922473
v -6.327610 1.774866 2.922473
v -6.619892 -1.774866 3.027052
v -6.619892 1.774866 3.027052
v -6.921016 -1.774866 3.102480
v -6.921016 1.774866 3.102480
v -7.228084 -1.774866 3.148029
v -7.228084 1.774866 3.148029
v -7.538138 -1.774866 3.163261
v -7.538138 1.774866 3.163261
v -7.848192 -1.774866 3.148029
v -7.848192 1.774866 3.148029
v -8.155260 -1.774866 3.102479
v -8.155260 1.774866 3.102479
v -8.456385 -1.774866 3.027051
v -8.456385 1.774866 3.027051
v -8.748666 -1.774866 2.922471
v -8.748666 1.774866 2.922471
v -9.029289 -1.774866 2.789746
v -9.029289 1.774866 2.789746
v -9.295551 -1.774866 2.630153
v -9.295551 1.774866 2.630153
v -9.544889 -1.774866 2.445231
v -9.544889 1.774866 2.445231
v -9.774901 -1.774866 2.236761
v -9.774901 1.774866 2.236761
v -9.983371 -1.774866 2.006749
v -9.983371 1.774866 2.006749
v -10.168292 -1.774866 1.757412
v -10.168292 1.774866 1.757412
v -10.327883 -1.774866 1.491149
v -10.327883 1.774866 1.491149
v -10.460608 -1.774866 1.210526
v -10.460608 1.774866 1.210526
v -10.565187 -1.774866 0.918246
v -10.565187 1.774866 0.918246
v -10.640615 -1.774866 0.617122
v -10.640615 1.774866 0.617122
v -10.686164 -1.774866 0.310055
v -10.686164 1.774866 0.310055
v -10.701396 -1.774866 0.000001
v -10.701396 1.774866 0.000001
v -10.686165 -1.774866 -0.310052
v -10.686165 1.774866 -0.310052
v -10.640615 -1.774866 -0.617119
v -10.640615 1.774866 -0.617119
v -10.565188 -1.774866 -0.918243
v -10.565188 1.774866 -0.918243
v -10.460609 -1.774866 -1.210524
v -10.460609 1.774866 -1.210524
v -10.327885 -1.774866 -1.491147
v -10.327885 1.774866 -1.491147
v -10.168294 -1.774866 -1.757409
v -10.168294 1.774866 -1.757409
v -9.983373 -1.774866 -2.006747
v -9.983373 1.774866 -2.006747
v -9.774903 -1.774866 -2.236758
v -9.774903 1.774866 -2.236758
v -9.544892 -1.774866 -2.445229
v -9.544892 1.774866 -2.445229
v -9.295555 -1.774866 -2.630151
v -9.295555 1.774866 -2.630151
v -9.029294 -1.774866 -2.789743
v -9.029294 1.774866 -2.789743
v -8.748672 -1.774866 -2.922468
v -8.748672 1.774866 -2.922468
v -8.456390 -1.774866 -3.027049
v -8.456390 1.774866 -3.027049
v -8.155267 -1.774866 -3.102478
v -8.155267 1.774866 -3.102478
v -7.848200 -1.774866 -3.148028
v -7.848200 1.774866 -3.148028
vt 0.2761 0.5000
vt 0.2431 1.0000
vt 0.2431 0.5000
vt 0.3086 0.5000
vt 0.2761 1.0000
vt 0.3403 0.5000
vt 0.3086 1.0000
vt 0.3708 0.5000
vt 0.3403 1.0000
vt 0.4000 0.5000
vt 0.3708 1.0000
vt 0.4276 0.5000
vt 0.4000 1.0000
vt 0.4532 0.5000
vt 0.4276 1.0000
vt 0.0234 0.0000
vt 0.0000 0.5000
vt 0.0000 0.0000
vt 0.0490 0.0000
vt 0.0234 0.5000
vt 0.0765 0.0000
vt 0.0490 0.5000
vt 0.1057 0.0000
vt 0.0765 0.5000
vt 0.1363 0.0000
vt 0.1057 0.5000
vt 0.1680 0.0000
vt 0.1363 0.5000
vt 0.2005 0.0000
vt 0.1680 0.5000
vt 0.2334 0.0000
vt 0.2005 0.5000
vt 0.2666 0.0000
vt 0.2334 0.5000
vt 0.2995 0.0000
vt 0.2666 0.5000
vt 0.3320 0.0000
vt 0.2995 0.5000
vt 0.3637 0.0000
vt 0.3320 0.5000
vt 0.3943 0.0000
vt 0.3637 0.5000
vt 0.4235 0.0000
vt 0.3943 0.5000
vt 0.4510 0.0000
vt 0.4235 0.5000
vt 0.4766 0.0000
vt 0.4510 0.5000
vt 0.5000 0.0000
vt 0.4766 0.5000
vt 0.8808 1.0000
vt 0.9063 0.5000
vt 0.9063 1.0000
vt 0.8532 1.0000
vt 0.8808 0.5000
vt 0.8240 1.0000
vt 0.8532 0.5000
vt 0.7934 1.0000
vt 0.8240 0.5000
vt 0.7617 1.0000
vt 0.7934 0.5000
vt 0.7293 1.0000
vt 0.7617 0.5000
vt 0.6963 1.0000
vt 0.7293 0.5000
vt 0.6632 1.0000
vt 0.6963 0.5000
vt 0.6303 1.0000
vt 0.6632 0.5000
vt 0.5978 1.0000
vt 0.6303 0.5000
vt 0.5661 1.0000
vt 0.5978 0.5000
vt 0.5355 1.0000
vt 0.5661 0.5000
vt 0.5063 1.0000
vt 0.5355 0.5000
vt 0.4788 1.0000
vt 0.5063 0.5000
vt 0.4532 1.0000
vt 0.4788 0.5000
vt 0.5234 0.0000
vt 0.5000 0.5000
vt 0.5000 0.0000
vt 0.5490 0.0000
vt 0.5234 0.5000
vt 0.5765 0.0000
vt 0.5490 0.5000
vt 0.6057 0.0000
vt 0.5765 0.5000
vt 0.6363 0.0000
vt 0.6057 0.5000
vt 0.6680 0.0000
vt 0.6363 0.5000
vt 0.7005 0.0000
vt 0.6680 0.5000
vt 0.7334 0.0000
vt 0.7005 0.5000
vt 0.7666 0.0000
vt 0.7334 0.5000
vt 0.7995 0.0000
vt 0.7666 0.5000
vt 0.8320 0.0000
vt 0.7995 0.5000
vt 0.8637 0.0000
vt 0.8320 0.5000
vt 0.8943 0.0000
vt 0.8637 0.5000
vt 0.9235 0.0000
vt 0.8943 0.5000
vt 0.9510 0.0000
vt 0.9235 0.5000
vt 0.9766 0.0000
vt 0.9510 0.5000
vt 1.0000 0.0000
vt 0.9766 0.5000
vt 0.0256 0.5000
vt 0.0000 1.0000
vt 0.0000 0.5000
vt 0.0531 0.5000
vt 0.0256 1.0000
vt 0.0823 0.5000
vt 0.0531 1.0000
vt 0.1129 0.5000
vt 0.0823 1.0000
vt 0.1446 0.5000
vt 0.1129 1.0000
vt 0.1771 0.5000
vt 0.1446 1.0000
vt 0.2100 0.5000
vt 0.1771 1.0000
vt 0.2100 1.0000
vt 0.4532 1.0000
vt 0.5000 0.5000
vt 0.4532 0.5000
vt 1.0000 0.5000
vn -0.0980 0.0000 0.9952
vn 0.0000 0.0000 1.0000
vn -0.1951 0.0000 0.9808
vn -0.2903 0.0000 0.9569
vn -0.3827 0.0000 0.9239
vn -0.4714 0.0000 0.8819
vn -0.5556 0.0000 0.8314
vn -0.6344 0.0000 0.7730
vn -0.7071 0.0000 0.7071
vn -0.7730 0.0000 0.6344
vn -0.8314 0.0000 0.5556
vn -0.8819 0.0000 0.4714
vn -0.9239 0.0000 0.3827
vn -0.9569 0.0000 0.2903
vn -0.9808 0.0000 0.1951
vn -0.9952 0.0000 0.0980
vn -1.0000 0.0000 0.0000
vn -0.9952 0.0000 -0.0980
vn -0.9808 0.0000 -0.1951
vn -0.9569 0.0000 -0.2903
vn -0.9239 0.0000 -0.3827
vn -0.8819 0.0000 -0.4714
vn -0.8314 0.0000 -0.5556
vn -0.7730 0.0000 -0.6344
vn -0.7071 0.0000 -0.7071
vn -0.6344 0.0000 -0.7730
vn -0.5556 0.0000 -0.8314
vn -0.4714 0.0000 -0.8819
vn -0.3827 0.0000 -0.9239
vn -0.2903 0.0000 -0.9569
vn -0.1951 0.0000 -0.9808
vn -0.0980 0.0000 -0.9952
vn 0.0000 0.0000 -1.0000
vn 0.0980 0.0000 -0.9952
vn 0.1951 0.0000 -0.9808
vn 0.2903 0.0000 -0.9569
vn 0.3827 0.0000 -0.9239
vn 0.4714 0.0000 -0.8819
vn 0.5556 0.0000 -0.8314
vn 0.6344 0.0000 -0.7730
vn 0.7071 0.0000 -0.7071
vn 0.7730 0.0000 -0.6344
vn 0.8314 0.0000 -0.5556
vn 0.8819 0.0000 -0.4714
vn 0.9239 0.0000 -0.3827
vn 0.9569 0.0000 -0.2903
vn 0.9808 0.0000 -0.1951
vn 0.9952 0.0000 -0.0980
vn 1.0000 0.0000 0.0000
vn 0.9952 0.0000 0.0980
vn 0.9808 0.0000 0.1951
vn 0.9569 0.0000 0.2903
vn 0.9239 0.0000 0.3827
vn 0.8819 0.0000 0.4714
vn 0.8314 0.0000 0.5556
vn 0.7730 0.0000 0.6344
vn 0.7071 0.0000 0.7071
vn 0.6344 0.0000 0.7730
vn 0.5556 0.0000 0.8314
vn 0.4714 0.0000 0.8819
vn 0.3827 0.0000 0.9239
vn 0.2903 0.0000 0.9569
vn 0.1951 0.0000 0.9808
vn 0.0980 0.0000 0.9952
usemtl None
s 1
f 3/1/1 2/2/2 1/3/2
f 5/4/3 4/5/1 3/1/1
f 7/6/4 6/7/3 5/4/3
f 9/8/5 8/9/4 7/6/4
f 11/10/6 10/11/5 9/8/5
f 13/12/7 12/13/6 11/10/6
f 15/14/8 14/15/7 13/12/7
f 17/16/9 16/17/8 15/18/8
f 19/19/10 18/20/9 17/16/9
f 21/21/11 20/22/10 19/19/10
f 23/23/12 22/24/11 21/21/11
f 25/25/13 24/26/12 23/23/12
f 27/27/14 26/28/13 25/25/13
f 29/29/15 28/30/14 27/27/14
f 31/31/16 30/32/15 29/29/15
f 33/33/17 32/34/16 31/31/16
f 35/35/18 34/36/17 33/33/17
f 37/37/19 36/38/18 35/35/18
f 39/39/20 38/40/19 37/37/19
f 41/41/21 40/42/20 39/39/20
f 43/43/22 42/44/21 41/41/21
f 45/45/23 44/46/22 43/43/22
f 47/47/24 46/48/23 45/45/23
f 49/49/25 48/50/24 47/47/24
f 51/51/26 50/52/25 49/53/25
f 53/54/27 52/55/26 51/51/26
f 55/56/28 54/57/27 53/54/27
f 57/58/29 56/59/28 55/56/28
f 59/60/30 58/61/29 57/58/29
f 61/62/31 60/63/30 59/60/30
f 63/64/32 62/65/31 61/62/31
f 65/66/33 64/67/32 63/64/32
f 67/68/34 66/69/33 65/66/33
f 69/70/35 68/71/34 67/68/34
f 71/72/36 70/73/35 69/70/35
f 73/74/37 72/75/36 71/72/36
f 75/76/38 74/77/37 73/74/37
f 77/78/39 76/79/38 75/76/38
f 79/80/40 78/81/39 77/78/39
f 81/82/41 80/83/40 79/84/40
f 83/85/42 82/86/41 81/82/41
f 85/87/43 84/88/42 83/85/42
f 87/89/44 86/90/43 85/87/43
f 89/91/45 88/92/44 87/89/44
f 91/93/46 90/94/45 89/91/45
f 93/95/47 92/96/46 91/93/46
f 95/97/48 94/98/47 93/95/47
f 97/99/49 96/100/48 95/97/48
f 99/101/50 98/102/49 97/99/49
f 101/103/51 100/104/50 99/101/50
f 103/105/52 102/106/51 101/103/51
f 105/107/53 104/108/52 103/105/52
f 107/109/54 106/110/53 105/107/53
f 109/111/55 108/112/54 107/109/54
f 111/113/56 110/114/55 109/111/55
f 113/115/57 112/116/56 111/113/56
f 115/117/58 114/118/57 113/119/57
f 117/120/59 116/121/58 115/117/58
f 119/122/60 118/123/59 117/120/59
f 121/124/61 120/125/60 119/122/60
f 123/126/62 122/127/61 121/124/61
f 125/128/63 124/129/62 123/126/62
f 127/130/64 126/131/63 125/128/63
f 1/3/2 128/132/64 127/130/64
f 3/1/1 4/5/1 2/2/2
f 5/4/3 6/7/3 4/5/1
f 7/6/4 8/9/4 6/7/3
f 9/8/5 10/11/5 8/9/4
f 11/10/6 12/13/6 10/11/5
f 13/12/7 14/15/7 12/13/6
f 15/14/8 16/133/8 14/15/7
f 17/16/9 18/20/9 16/17/8
f 19/19/10 20/22/10 18/20/9
f 21/21/11 22/24/11 20/22/10
f 23/23/12 24/26/12 22/24/11
f 25/25/13 26/28/13 24/26/12
f 27/27/14 28/30/14 26/28/13
f 29/29/15 30/32/15 28/30/14
f 31/31/16 32/34/16 30/32/15
f 33/33/17 34/36/17 32/34/16
f 35/35/18 36/38/18 34/36/17
f 37/37/19 38/40/19 36/38/18
f 39/39/20 40/42/20 38/40/19
f 41/41/21 42/44/21 40/42/20
f 43/43/22 44/46/22 42/44/21
f 45/45/23 46/48/23 44/46/22
f 47/47/24 48/50/24 46/48/23
f 49/49/25 50/134/25 48/50/24
f 51/51/26 52/55/26 50/52/25
f 53/54/27 54/57/27 52/55/26
f 55/56/28 56/59/28 54/57/27
f 57/58/29 58/61/29 56/59/28
f 59/60/30 60/63/30 58/61/29
f 61/62/31 62/65/31 60/63/30
f 63/64/32 64/67/32 62/65/31
f 65/66/33 66/69/33 64/67/32
f 67/68/34 68/71/34 66/69/33
f 69/70/35 70/73/35 68/71/34
f 71/72/36 72/75/36 70/73/35
f 73/74/37 74/77/37 72/75/36
f 75/76/38 76/79/38 74/77/37
f 77/78/39 78/81/39 76/79/38
f 79/80/40 80/135/40 78/81/39
f 81/82/41 82/86/41 80/83/40
f 83/85/42 84/88/42 82/86/41
f 85/87/43 86/90/43 84/88/42
f 87/89/44 88/92/44 86/90/43
f 89/91/45 90/94/45 88/92/44
f 91/93/46 92/96/46 90/94/45
f 93/95/47 94/98/47 92/96/46
f 95/97/48 96/100/48 94/98/47
f 97/99/49 98/102/49 96/100/48
f 99/101/50 100/104/50 98/102/49
f 101/103/51 102/106/51 100/104/50
f 103/105/52 104/108/52 102/106/51
f 105/107/53 106/110/53 104/108/52
f 107/109/54 108/112/54 106/110/53
f 109/111/55 110/114/55 108/112/54
f 111/113/56 112/116/56 110/114/55
f 113/115/57 114/136/57 112/116/56
f 115/117/58 116/121/58 114/118/57
f 117/120/59 118/123/59 116/121/58
f 119/122/60 120/125/60 118/123/59
f 121/124/61 122/127/61 120/125/60
f 123/126/62 124/129/62 122/127/61
f 125/128/63 126/131/63 124/129/62
f 127/130/64 128/132/64 126/131/63
f 1/3/2 2/2/2 128/132/64
