<svg width="960" height="540" xmlns="http://www.w3.org/2000/svg">
 <clipPath id="g48294b6862_0_0.0">
  <path id="svg_1" clip-rule="nonzero" d="m0,0l960,0l0,540l-960,0l0,-540z"/>
 </clipPath>

 <g>
  <title>background</title>
  <rect fill="none" id="canvas_background" height="402" width="582" y="-1" x="-1"/>
 </g>
 <g>
  <title>Layer 1</title>
  <g stroke="null" id="svg_2" clip-path="url(#g48294b6862_0_0.0)">
   <path stroke="null" id="svg_5" fill-rule="evenodd" d="m111.33763,248.24933l529.3256,0l0,66.17325l-529.3256,0l0,-66.17325z" fill-opacity="0" fill="#000000"/>
   <path stroke="null" id="svg_7" fill-rule="evenodd" d="m237.92438,192.27821l271.84967,-0.94489" fill-opacity="0" fill="#000000"/>
   <path stroke="null" id="svg_4" fill-rule="evenodd" d="m229.8517,144.91522l0,0c0,-11.36417 9.21248,-20.57664 20.57664,-20.57664l465.1457,0c5.45722,0 10.69098,2.16789 14.54987,6.02676c3.85889,3.85887 6.02673,9.09262 6.02673,14.54988l0,248.16956c0,11.36417 -9.21246,20.57663 -20.5766,20.57663l-465.1457,0c-11.36416,0 -20.57664,-9.21246 -20.57664,-20.57663l0,-248.16956z" fill="#f7d000"/>
   <path stroke="null" id="svg_6" fill-rule="nonzero" d="m290.97006,351.39246q-7.17188,0 -10.76563,-3.9375q-3.57812,-3.9375 -3.89062,-12.1875l9.09375,-1.53125q0.125,4.92188 1.375,7.26563q1.25,2.32812 3.73437,2.32812q1.85938,0 2.6875,-1.1875q0.84375,-1.1875 0.84375,-3.03125q0,-3.07812 -1.39062,-5.21875q-1.375,-2.14062 -4.3125,-4.70312l-5.375,-4.67188q-3.20313,-2.6875 -4.90625,-5.76562q-1.6875,-3.07813 -1.6875,-7.35938q0,-6.32812 3.73437,-9.75q3.75,-3.4375 10.34375,-3.4375q7.04688,0 9.79688,4.0625q2.75,4.0625 3.14062,10.34375l-9.15625,1.34375q-0.125,-4.09375 -0.9375,-6.04687q-0.79687,-1.95313 -3.15625,-1.95313q-1.73437,0 -2.70312,1.3125q-0.95313,1.3125 -0.95313,3.10938q0,2.54687 1.125,4.3125q1.125,1.76562 3.54688,3.875l5.25,4.60937q3.71875,3.26563 5.82812,6.875q2.10938,3.60938 2.10938,8.48438q0,3.70312 -1.67188,6.625q-1.65625,2.90625 -4.70312,4.57812q-3.03125,1.65625 -7,1.65625zm29.44495,-0.25q-5.57813,0 -7.71875,-2.5q-2.14063,-2.5 -2.14063,-7.60937l0,-21l-3.65625,0l0,-6.32813l3.65625,0l0,-11.14062l9.79688,0l0,11.14062l5.375,0l0,6.32813l-5.375,0l0,20.03125q0,3.26562 3.25,3.26562q1.73437,0 2.76562,-0.25l0,7.54688q-3.40625,0.51562 -5.95312,0.51562zm18.35971,0.1875q-2.5625,0 -4.48438,-1.28125q-1.90625,-1.28125 -2.90625,-3.35937q-0.98437,-2.07813 -0.98437,-4.3125q0,-4.29688 2.10937,-7.04688q2.10938,-2.75 5.07813,-4.28125q2.98437,-1.54687 7.90625,-3.32812l0,-3.46875q0,-1.98438 -0.54688,-3q-0.53125,-1.03125 -1.95312,-1.03125q-1.40625,0 -1.98438,0.90625q-0.5625,0.89062 -0.70312,2.54687l-0.1875,2.5625l-9.07813,-0.375q0.25,-6.59375 3.375,-9.6875q3.14063,-3.10937 9.42188,-3.10937q5.4375,0 8.1875,3.01562q2.75,3 2.75,8.23438l0,17.21875q0,4.35937 0.64062,9.15625l-8.64062,0q-0.25,-1.85938 -0.82813,-5.3125q-0.76562,2.5625 -2.59375,4.26562q-1.82812,1.6875 -4.57812,1.6875zm3.45312,-6.84375q0.96875,0 1.82813,-0.64062q0.85937,-0.64063 1.4375,-1.46875l0,-10.1875q-3,1.73437 -4.60938,3.59375q-1.59375,1.84375 -1.59375,4.53125q0,1.98437 0.76563,3.07812q0.76562,1.09375 2.17187,1.09375zm30.02707,6.65625q-5.57812,0 -7.71875,-2.5q-2.14062,-2.5 -2.14062,-7.60937l0,-21l-3.65625,0l0,-6.32813l3.65625,0l0,-11.14062l9.79687,0l0,11.14062l5.375,0l0,6.32813l-5.375,0l0,20.03125q0,3.26562 3.25,3.26562q1.73438,0 2.76563,-0.25l0,7.54688q-3.40625,0.51562 -5.95313,0.51562zm11.00034,-50.75l9.73437,0l0,7.21875l-9.73437,0l0,-7.21875zm0.0625,13.3125l9.67187,0l0,36.98438l-9.67187,0l0,-36.98438zm27.96512,37.625q-6.07813,0 -9.21875,-3.39062q-3.125,-3.39063 -3.125,-9.53125l0,-12.48438q0,-6.20312 3.125,-9.53125q3.14062,-3.32812 9.21875,-3.32812q5.95312,0 8.98437,2.8125q3.04688,2.8125 3.04688,8.4375l0,3.53125l-9.28125,0l0,-3.78125q0,-2.4375 -0.64063,-3.35938q-0.625,-0.92187 -2.04687,-0.92187q-1.53125,0 -2.14063,1.15625q-0.60937,1.14062 -0.60937,4.01562l0,14.59375q0,2.89063 0.67187,3.98438q0.67188,1.07812 2.07813,1.07812q1.48437,0 2.07812,-1.01562q0.60938,-1.03125 0.60938,-3.28125l0,-4.46875l9.28125,0l0,4.09375q0,5.5625 -3.07813,8.48437q-3.0625,2.90625 -8.95312,2.90625zm41.66827,-52.48437l11.71875,0l9.9844,51.84375l-9.7344,0l-1.92188,-11.39063l-8.1875,0l-1.98437,11.39063l-9.92188,0l10.04688,-51.84375zm9.03125,33.92187l-3.14063,-20.85937l-3.07812,20.85937l6.21875,0zm17.46323,-19.0625l9.67187,0l0,5.9375q1.92188,-3.32812 3.73438,-4.85937q1.82812,-1.53125 4.26562,-1.53125q0.57813,0 1.46875,0.125l0,9.85937q-1.67187,-0.76562 -3.45312,-0.76562q-3.53125,0 -6.01563,3.57812l0,24.64063l-9.67187,0l0,-36.98438zm34.63305,37.4375q-5.57812,0 -7.71875,-2.5q-2.14062,-2.5 -2.14062,-7.60937l0,-21l-3.65625,0l0,-6.32813l3.65625,0l0,-11.14062l9.79687,0l0,11.14062l5.375,0l0,6.32813l-5.375,0l0,20.03125q0,3.26562 3.25,3.26562q1.73438,0 2.76563,-0.25l0,7.54688q-3.40625,0.51562 -5.95313,0.51562zm27.51593,-52.29687l21.89063,0l0,7.23437l-11.39063,0l0,13.95313l9.65625,0l0,7.35937l-9.65625,0l0,23.29688l-10.5,0l0,-51.84375zm38.34058,52.48437q-6.01563,0 -9.25,-3.20312q-3.23438,-3.20313 -3.23438,-9.28125l0,-13.3125q0,-6.07813 3.23438,-9.26563q3.23437,-3.20312 9.25,-3.20312q6.01562,0 9.23437,3.20312q3.23438,3.1875 3.23438,9.26563l0,13.3125q0,6.07812 -3.23438,9.28125q-3.21875,3.20312 -9.23437,3.20312zm0.0625,-6.53125q1.65625,0 2.26562,-1.3125q0.60938,-1.3125 0.60938,-3.9375l0,-14.65625q0,-2.625 -0.60938,-3.96875q-0.60937,-1.34375 -2.26562,-1.34375q-1.73438,0 -2.375,1.375q-0.64063,1.375 -0.64063,3.9375l0,14.65625q0,2.5625 0.64063,3.90625q0.64062,1.34375 2.375,1.34375zm18.48773,-31.09375l9.67188,0l0,5.9375q1.92187,-3.32812 3.73437,-4.85937q1.82813,-1.53125 4.26563,-1.53125q0.57812,0 1.46875,0.125l0,9.85937q-1.67188,-0.76562 -3.45313,-0.76562q-3.53125,0 -6.01562,3.57812l0,24.64063l-9.67188,0l0,-36.98438zm23.55493,0l9.40625,0l0,3.0625q3.71875,-3.78125 8.70313,-3.78125q2.17187,0 3.79687,1.125q1.64063,1.125 2.48438,3.35938q3.96875,-4.48438 9.40625,-4.48438q3.1875,0 5.07812,2.34375q1.89063,2.32813 1.89063,6.5625l0,28.79688l-9.34375,0l0,-27.84375q0,-1.78125 -0.60938,-2.51563q-0.60937,-0.75 -1.82812,-0.75q-0.82813,0 -1.89063,0.45313q-1.04687,0.45312 -2,1.28125l0,0.57812l0,28.79688l-9.34375,0l0,-27.84375q0,-1.78125 -0.60937,-2.51563q-0.60938,-0.75 -1.82813,-0.75q-0.82812,0 -1.89062,0.45313q-1.04688,0.45312 -2.01563,1.28125l0,29.375l-9.40625,0l0,-36.98438zm57.91797,37.625q-4.79687,0 -7.9375,-2.32812q-3.125,-2.34375 -4.79687,-7.20313l6.78125,-2.82812q1.92187,5.70312 5.4375,5.70312q1.34375,0 2.01562,-0.60937q0.67188,-0.60938 0.67188,-1.6875q0,-1.48438 -0.92188,-2.625q-0.92187,-1.15625 -3.6875,-3.53125l-3.45312,-2.9375q-3.0625,-2.625 -4.54688,-4.85938q-1.46875,-2.25 -1.46875,-5.375q0,-2.95312 1.46875,-5.21875q1.48438,-2.28125 4,-3.51562q2.53125,-1.25 5.54688,-1.25q4.46875,0 7.375,2.53125q2.92187,2.51562 4.01562,7.0625l-6.28125,2.8125q-0.5625,-2.29688 -1.84375,-3.92188q-1.28125,-1.64062 -3.01562,-1.64062q-1.15625,0 -1.85938,0.67187q-0.70312,0.67188 -0.70312,1.75q0,1.09375 1.09375,2.34375q1.09375,1.25 3.39062,3.23438l3.45313,3.0625q3.01562,2.5625 4.70312,4.9375q1.70313,2.35937 1.70313,5.5q0,3.07812 -1.51563,5.3125q-1.5,2.23437 -4.0625,3.42187q-2.54687,1.1875 -5.5625,1.1875z" fill="#434343"/>
   <path stroke="#434343" id="svg_8" fill-rule="evenodd" d="m344.9244,224.27821l223.84988,-0.77805" stroke-linejoin="round" stroke-width="8"/>
   <path stroke="#434343" id="svg_9" fill-rule="evenodd" d="m568.82025,236.71394l36.25861,-13.33997l-36.35047,-13.08758l0.09186,26.42755z" stroke-width="8" fill="#434343"/>
  </g>
 </g>
</svg>