# Blender v2.79 (sub 0) OBJ File: 'room2.blend'
# www.blender.org
mtllib roof.mtl
o Circle_Circle.001
v -7.281560 2.669473 -1.425068
v -7.543533 2.669473 -1.399266
v -7.795438 2.669473 -1.322851
v -8.027596 2.669473 -1.198760
v -8.231083 2.669473 -1.031762
v -8.398081 2.669473 -0.828275
v -8.522171 2.669473 -0.596118
v -8.598586 2.669473 -0.344213
v -8.624388 2.669473 -0.082240
v -8.598586 2.669473 0.179733
v -8.522172 2.669473 0.431638
v -8.398081 2.669473 0.663795
v -8.231083 2.669473 0.867283
v -8.027596 2.669473 1.034281
v -7.795438 2.669473 1.158371
v -7.543533 2.669473 1.234786
v -7.281560 2.669473 1.260588
v -7.019587 2.669473 1.234786
v -6.767682 2.669473 1.158371
v -6.535524 2.669473 1.034280
v -6.332037 2.669473 0.867282
v -6.165040 2.669473 0.663795
v -6.040949 2.669473 0.431637
v -5.964535 2.669473 0.179732
v -5.938733 2.669473 -0.082241
v -5.964535 2.669473 -0.344214
v -6.040950 2.669473 -0.596119
v -6.165041 2.669473 -0.828276
v -6.332039 2.669473 -1.031764
v -6.535527 2.669473 -1.198761
v -6.767684 2.669473 -1.322852
v -7.019590 2.669473 -1.399266
vn 0.0000 1.0000 0.0000
usemtl None
s off
f 2//1 3//1 4//1 5//1 6//1 7//1 8//1 9//1 10//1 11//1 12//1 13//1 14//1 15//1 16//1 17//1 18//1 19//1 20//1 21//1 22//1 23//1 24//1 25//1 26//1 27//1 28//1 29//1 30//1 31//1 32//1 1//1
